# xmcd
# Copyright (C) 1995-1998 Ti Kan
#
# Track frame offsets:
#       150
#       13322
#       28689
#       41969
#
# Disc length: 764 seconds
#
# Revision: 0
# Processed by: cddbd v1.5.2PL0 Copyright (c) Steve Scherf et al.
# Submitted via: CD-Transfer v1.0
#
DISCID=3102fa04
DTITLE=Peace Bruda - 
DYEAR=1900
DGENRE=
TTITLE0=One Love
TTITLE1=I Can't Wait
TTITLE2=I Want Your Girlfriend To Be My Girlfriend
TTITLE3=Weren't Made For Love
EXTD=
EXTT0=
EXTT1=
EXTT2=
EXTT3=
PLAYORDER=
